<svg width="41" height="50" viewBox="0 0 41 50" fill="none" xmlns="http://www.w3.org/2000/svg">
    <path d="M30.1761 0.000488281C30.2931 0.000488281 30.4102 0.000488281 30.5338 0.000488281C30.8209 3.55429 29.4672 6.20979 27.822 8.13269C26.2077 10.0424 23.9972 11.8946 20.4219 11.6136C20.1834 8.11059 21.5393 5.65209 23.1823 3.73359C24.706 1.94559 27.4996 0.354588 30.1761 0.000488281Z"
          fill="#F2F2F2"/>
    <path d="M41 36.5975C41 36.6329 41 36.6638 41 36.697C39.9952 39.7464 38.562 42.3597 36.813 44.785C35.2164 46.9868 33.2598 49.9498 29.7662 49.9498C26.7474 49.9498 24.7422 48.0047 21.6483 47.9516C18.3756 47.8985 16.5758 49.5781 13.5835 50.0007C13.2412 50.0007 12.8989 50.0007 12.5632 50.0007C10.3659 49.6821 8.59264 47.9383 7.30076 46.3672C3.49138 41.7246 0.547668 35.7278 0 28.0536C0 27.3013 0 26.5511 0 25.7987C0.231875 20.3064 2.89513 15.8409 6.4351 13.6767C8.30335 12.526 10.8716 11.5458 13.7314 11.9839C14.9571 12.1742 16.2092 12.5946 17.3067 13.0107C18.3469 13.4112 19.6476 14.1215 20.8798 14.0839C21.7146 14.0596 22.5449 13.6236 23.3863 13.316C25.8508 12.4243 28.2667 11.4019 31.4511 11.8821C35.2782 12.4619 37.9945 14.1658 39.6728 16.7946C36.4354 18.8592 33.8759 21.9705 34.3132 27.2836C34.7018 32.1098 37.502 34.9334 41 36.5975Z"
          fill="#F2F2F2"/>
</svg>
